<svg width="29" height="28" viewBox="0 0 29 28" fill="none" xmlns="http://www.w3.org/2000/svg">
<path d="M17.0713 11V17H20.0713V11H17.0713ZM16.5713 10H20.5713C20.7039 10 20.8311 10.0527 20.9248 10.1464C21.0186 10.2402 21.0713 10.3674 21.0713 10.5V17.5C21.0713 17.6326 21.0186 17.7598 20.9248 17.8536C20.8311 17.9473 20.7039 18 20.5713 18H16.5713C16.4387 18 16.3115 17.9473 16.2177 17.8536C16.124 17.7598 16.0713 17.6326 16.0713 17.5V10.5C16.0713 10.3674 16.124 10.2402 16.2177 10.1464C16.3115 10.0527 16.4387 10 16.5713 10Z" fill="#A8A29E" style="fill:#A8A29E;fill:color(display-p3 0.6588 0.6353 0.6196);fill-opacity:1;"/>
<path d="M18.0713 7H19.0713V10.5H18.0713V7ZM18.0713 17.5H19.0713V21H18.0713V17.5Z" fill="#A8A29E" style="fill:#A8A29E;fill:color(display-p3 0.6588 0.6353 0.6196);fill-opacity:1;"/>
<path d="M9.07129 8V20H12.0713V8H9.07129ZM8.57129 7H12.5713C12.7039 7 12.8311 7.05268 12.9248 7.14645C13.0186 7.24021 13.0713 7.36739 13.0713 7.5V20.5C13.0713 20.6326 13.0186 20.7598 12.9248 20.8536C12.8311 20.9473 12.7039 21 12.5713 21H8.57129C8.43868 21 8.3115 20.9473 8.21774 20.8536C8.12397 20.7598 8.07129 20.6326 8.07129 20.5V7.5C8.07129 7.36739 8.12397 7.24021 8.21774 7.14645C8.3115 7.05268 8.43868 7 8.57129 7Z" fill="#A8A29E" style="fill:#A8A29E;fill:color(display-p3 0.6588 0.6353 0.6196);fill-opacity:1;"/>
<path d="M10.0713 4H11.0713V7.5H10.0713V4ZM10.0713 20.5H11.0713V24H10.0713V20.5Z" fill="#A8A29E" style="fill:#A8A29E;fill:color(display-p3 0.6588 0.6353 0.6196);fill-opacity:1;"/>
</svg>
