<svg width="18" height="19" viewBox="0 0 18 19" fill="none" xmlns="http://www.w3.org/2000/svg">
<path d="M8.20703 13L4.35352 16.8535L3.64648 16.1465L6.29297 13.5H0V12.5H6.29297L3.64648 9.85352L4.35352 9.14648L8.20703 13ZM6 2.5H12V1.5H13V2.5H14.5C15.163 2.5 15.7987 2.76358 16.2676 3.23242C16.7364 3.70126 17 4.33696 17 5V14C17 14.663 16.7364 15.2987 16.2676 15.7676C15.7987 16.2364 15.163 16.5 14.5 16.5H9V15.5H14.5C14.8978 15.5 15.2792 15.3419 15.5605 15.0605C15.8419 14.7792 16 14.3978 16 14V7.5H2V8.5H1V5C1 3.62386 2.12386 2.5 3.5 2.5H5V1.5H6V2.5ZM3.5 3.5C2.67614 3.5 2 4.17614 2 5V6.5H16V5C16 4.60218 15.8419 4.22076 15.5605 3.93945C15.2792 3.65815 14.8978 3.5 14.5 3.5H13V4.5H12V3.5H6V4.5H5V3.5H3.5Z" fill="#595959" style="fill:#595959;fill:color(display-p3 0.3490 0.3490 0.3490);fill-opacity:1;"/>
</svg>
