<svg width="28" height="28" viewBox="0 0 28 28" fill="none" xmlns="http://www.w3.org/2000/svg">
<path d="M23.7187 4.93244C21.9062 4.08442 19.9682 3.46812 17.942 3.11719C17.6932 3.56707 17.4025 4.17216 17.2021 4.65352C15.0482 4.32961 12.9142 4.32961 10.8 4.65352C10.5996 4.17216 10.3023 3.56707 10.0513 3.11719C8.02294 3.46812 6.08272 4.08669 4.27023 4.93693C0.614417 10.4613 -0.376613 15.8485 0.118903 21.1592C2.54363 22.9699 4.89348 24.0699 7.20367 24.7897C7.77407 24.0047 8.28279 23.1701 8.72104 22.2907C7.88638 21.9735 7.08695 21.5821 6.33159 21.1277C6.53198 20.9793 6.728 20.8241 6.91738 20.6644C11.5246 22.8193 16.5304 22.8193 21.0825 20.6644C21.2741 20.8241 21.4701 20.9793 21.6683 21.1277C20.9107 21.5843 20.1091 21.9757 19.2745 22.2929C19.7127 23.1701 20.2192 24.0069 20.7918 24.7919C23.1042 24.0721 25.4563 22.9722 27.881 21.1592C28.4624 15.0028 26.8878 9.66506 23.7187 4.93244ZM9.34871 17.8932C7.96568 17.8932 6.83148 16.602 6.83148 15.0298C6.83148 13.4575 7.94146 12.1641 9.34871 12.1641C10.756 12.1641 11.8902 13.4552 11.8659 15.0298C11.8681 16.602 10.756 17.8932 9.34871 17.8932ZM18.6512 17.8932C17.2682 17.8932 16.134 16.602 16.134 15.0298C16.134 13.4575 17.2439 12.1641 18.6512 12.1641C20.0584 12.1641 21.1926 13.4552 21.1684 15.0298C21.1684 16.602 20.0584 17.8932 18.6512 17.8932Z" fill="#666666" style="fill:#666666;fill:color(display-p3 0.4000 0.4000 0.4000);fill-opacity:1;"/>
</svg>
