<svg width="13" height="13" viewBox="0 0 13 13" fill="none" xmlns="http://www.w3.org/2000/svg">
<g clip-path="url(#clip0_12756_10181)">
<path d="M9.77752 6.31152H2.93502C2.39516 6.31152 1.95752 6.74898 1.95752 7.28861V10.7084C1.95752 11.248 2.39516 11.6855 2.93502 11.6855H9.77752C10.3174 11.6855 10.755 11.248 10.755 10.7084V7.28861C10.755 6.74898 10.3174 6.31152 9.77752 6.31152Z" fill="currentColor" />
<path d="M3.91235 6.31155V4.35738C3.91235 3.70953 4.16982 3.08822 4.62811 2.63013C5.0864 2.17203 5.70798 1.91467 6.3561 1.91467C7.00423 1.91467 7.6258 2.17203 8.0841 2.63013C8.54239 3.08822 8.79985 3.70953 8.79985 4.35738V6.31155" fill="currentColor" />
</g>
<defs>
<clipPath id="clip0_12756_10181">
<rect width="11.73" height="12" fill="white" style="fill:white;fill-opacity:1;" transform="translate(0.491211 0.800049)"/>
</clipPath>
</defs>
</svg>
