<svg width="160" height="34" viewBox="0 0 160 34" fill="none" xmlns="http://www.w3.org/2000/svg">
<g clip-path="url(#clip0_13399_3167)">
<path d="M29.8784 2.75806L14.3865 14.3865L2.75806 29.8784L18.2491 18.2491L29.8784 2.75806Z" fill="#333333" style="fill:#333333;fill:color(display-p3 0.2000 0.2000 0.2000);fill-opacity:1;"/>
<path d="M9.77002 32.6365L22.8308 22.8318L32.6363 9.7702L19.5746 19.5748L9.77002 32.6365Z" fill="#333333" style="fill:#333333;fill:color(display-p3 0.2000 0.2000 0.2000);fill-opacity:1;"/>
<path d="M22.8663 0L9.80462 9.80462L0 22.8663L13.0616 13.0616L22.8663 0Z" fill="#333333" style="fill:#333333;fill:color(display-p3 0.2000 0.2000 0.2000);fill-opacity:1;"/>
<path d="M50.3237 27.3845V18.9228H42.9692V27.3845H39.0222V8.53058H42.9692V15.6296H50.3237V8.53058H54.2991V27.3845H50.3237Z" fill="#333333" style="fill:#333333;fill:color(display-p3 0.2000 0.2000 0.2000);fill-opacity:1;"/>
<path d="M59.0696 29.0311C59.4387 30.1667 60.5175 30.8196 61.9946 30.8196C63.9534 30.8196 65.5157 29.6557 65.5157 27.8095V25.5375C65.0047 26.7866 63.4717 27.5248 61.7391 27.5248C58.8141 27.5248 56.6281 25.5375 56.6281 22.4706V13.1856H60.3196V21.9312C60.3196 23.663 61.1145 24.5439 62.6768 24.5439C64.3517 24.5439 65.5166 23.4367 65.5166 21.9312V13.1856H69.208V27.5248C69.208 31.7272 66.1411 33.9984 62.2509 33.9984C59.4111 33.9984 57.1116 32.7776 56.0896 30.7327L59.0713 29.0294L59.0696 29.0311Z" fill="#333333" style="fill:#333333;fill:color(display-p3 0.2000 0.2000 0.2000);fill-opacity:1;"/>
<path d="M70.3701 34.0001V13.4136H73.9196L73.948 15.1169C74.8281 13.6974 76.134 13.0445 77.8382 13.0445C81.3593 13.0445 83.886 15.8275 83.886 20.541C83.886 24.7718 81.7568 27.7536 78.1505 27.7536C76.4187 27.7536 75.0552 27.0438 74.0048 25.5667V34.0001H70.3701ZM80.1377 20.2855C80.1377 17.7864 78.8318 16.0546 76.9857 16.0546C75.1395 16.0546 73.862 17.7012 73.862 20.0584C73.862 23.0969 74.9124 24.6015 76.9573 24.6015C79.1149 24.6015 80.1377 23.1536 80.1377 20.2855Z" fill="#333333" style="fill:#333333;fill:color(display-p3 0.2000 0.2000 0.2000);fill-opacity:1;"/>
<path d="M88.5995 21.3643C88.7131 23.4651 89.9054 24.8286 91.7232 24.8286C92.9156 24.8286 93.9668 24.2324 94.2223 23.2672H98.0274C97.1757 26.1354 94.8753 27.7536 91.8944 27.7536C87.2377 27.7536 84.9089 25.1977 84.9089 20.1435C84.9089 15.8275 87.3788 13.0445 91.6664 13.0445C95.9541 13.0445 98.2252 15.8275 98.2252 21.3643H88.5995ZM94.4202 19.0363C94.3634 16.9639 93.0007 15.9694 91.552 15.9694C90.1033 15.9694 88.8542 17.105 88.7122 19.0363H94.4193H94.4202Z" fill="#333333" style="fill:#333333;fill:color(display-p3 0.2000 0.2000 0.2000);fill-opacity:1;"/>
<path d="M99.5027 27.3845V13.4144H102.967V15.0894C104.188 13.2157 105.608 13.0453 107.113 13.0453H107.595V16.822C107.255 16.7652 106.914 16.7368 106.573 16.7368C104.301 16.7368 103.194 17.8724 103.194 20.116V27.3854H99.5027V27.3845Z" fill="#333333" style="fill:#333333;fill:color(display-p3 0.2000 0.2000 0.2000);fill-opacity:1;"/>
<path d="M113.303 27.3845L106.915 8.53058H111.118L115.235 21.7626L119.324 8.53058H123.413L117.024 27.3845H113.304H113.303Z" fill="#333333" style="fill:#333333;fill:color(display-p3 0.2000 0.2000 0.2000);fill-opacity:1;"/>
<path d="M124.916 21.3643C125.03 23.4651 126.222 24.8286 128.04 24.8286C129.232 24.8286 130.283 24.2324 130.539 23.2672H134.344C133.492 26.1354 131.192 27.7536 128.211 27.7536C123.554 27.7536 121.226 25.1977 121.226 20.1435C121.226 15.8275 123.695 13.0445 127.983 13.0445C132.271 13.0445 134.542 15.8275 134.542 21.3643H124.916ZM130.737 19.0363C130.68 16.9639 129.317 15.9694 127.869 15.9694C126.42 15.9694 125.171 17.105 125.029 19.0363H130.736H130.737Z" fill="#333333" style="fill:#333333;fill:color(display-p3 0.2000 0.2000 0.2000);fill-opacity:1;"/>
<path d="M144.764 27.3845V18.9228C144.764 16.7652 144.139 16.1682 142.378 16.1682C140.448 16.1682 139.51 17.247 139.51 19.377V27.3845H135.819V13.4144H139.34V15.4584C140.191 13.897 141.611 13.0445 143.854 13.0445C146.524 13.0445 148.483 14.6627 148.483 17.7012V27.3836H144.763L144.764 27.3845Z" fill="#333333" style="fill:#333333;fill:color(display-p3 0.2000 0.2000 0.2000);fill-opacity:1;"/>
<path d="M155.497 24.204C156.263 24.204 157.143 23.835 157.768 23.2672L159.528 26.3909C158.591 27.2709 157.257 27.7535 155.496 27.7535C152.372 27.7535 149.987 25.4532 149.987 22.0748V9.63776H153.707V13.1873H157.03V15.7999H153.707V21.9329C153.707 23.6078 154.53 24.2049 155.496 24.2049L155.497 24.204Z" fill="#333333" style="fill:#333333;fill:color(display-p3 0.2000 0.2000 0.2000);fill-opacity:1;"/>
</g>
<defs>
<clipPath id="clip0_13399_3167">
<rect width="159.529" height="34" fill="white" style="fill:white;fill-opacity:1;"/>
</clipPath>
</defs>
</svg>
