<svg width="28" height="28" viewBox="0 0 28 28" fill="none" xmlns="http://www.w3.org/2000/svg">
<path d="M22.3999 5.13334L3.38326 12.4833C2.09993 12.95 2.09993 13.7667 3.14993 14L7.93326 15.5167L9.79993 21.1167C10.0333 21.7 9.91659 21.9333 10.4999 21.9333C10.9666 21.9333 11.1999 21.7 11.4333 21.4667C11.5499 21.35 12.5999 20.3 13.7666 19.1333L18.6666 22.75C19.5999 23.2167 20.1833 22.9833 20.4166 21.9333L23.6833 6.65C24.0333 5.36667 23.2166 4.66667 22.3999 5.13334ZM19.9499 8.63334L10.8499 16.9167L10.4999 20.7667L8.63326 15.1667L19.3666 8.4C19.8333 8.05 20.2999 8.28334 19.9499 8.63334Z" fill="#666666" style="fill:#666666;fill:color(display-p3 0.4000 0.4000 0.4000);fill-opacity:1;"/>
</svg>
